<?xml version="1.0" encoding="UTF-8" standalone="no"?>
<svg
   xmlns:dc="http://purl.org/dc/elements/1.1/"
   xmlns:cc="http://creativecommons.org/ns#"
   xmlns:rdf="http://www.w3.org/1999/02/22-rdf-syntax-ns#"
   xmlns:svg="http://www.w3.org/2000/svg"
   xmlns="http://www.w3.org/2000/svg"
   xmlns:sodipodi="http://sodipodi.sourceforge.net/DTD/sodipodi-0.dtd"
   xmlns:inkscape="http://www.inkscape.org/namespaces/inkscape"
   enable-background="new 0 0 100 100"
   height="100px"
   id="Layer_1"
   version="1.1"
   viewBox="0 0 100 100"
   width="100px"
   xml:space="preserve"
   sodipodi:docname="facebook_icon.svg"
   inkscape:version="0.92.4 (5da689c313, 2019-01-14)"><metadata
     id="metadata13"><rdf:RDF><cc:Work
         rdf:about=""><dc:format>image/svg+xml</dc:format><dc:type
           rdf:resource="http://purl.org/dc/dcmitype/StillImage" /></cc:Work></rdf:RDF></metadata><defs
     id="defs11" /><sodipodi:namedview
     pagecolor="#ffffff"
     bordercolor="#666666"
     borderopacity="1"
     objecttolerance="10"
     gridtolerance="10"
     guidetolerance="10"
     inkscape:pageopacity="0"
     inkscape:pageshadow="2"
     inkscape:window-width="1366"
     inkscape:window-height="706"
     id="namedview9"
     showgrid="false"
     inkscape:zoom="3.337544"
     inkscape:cx="16.40685"
     inkscape:cy="33.078421"
     inkscape:window-x="-8"
     inkscape:window-y="-8"
     inkscape:window-maximized="1"
     inkscape:current-layer="Layer_1" /><path
     style="fill:#ffffff;fill-opacity:1"
     inkscape:connector-curvature="0"
     id="path4"
     d="m 64.343,22.212 h -8.818 c -7.194,0 -13.272,6.837 -13.272,14.931 v 3.25 h -7.001 c -0.552,0 -1,0.448 -1,1 v 10.91 c 0,0.552 0.448,1 1,1 h 7.001 v 23.625 c 0,0.552 0.448,1 1,1 h 10.182 c 0.552,0 1,-0.448 1,-1 V 53.304 h 9.909 c 0.552,0 1,-0.448 1,-1 v -10.91 c 0,-0.552 -0.448,-1 -1,-1 h -9.909 v -3.345 c 0,-1.272 0.764,-1.928 1.09,-1.928 h 8.818 c 0.552,0 1,-0.448 1,-1 V 23.212 c 0,-0.552 -0.447,-1 -1,-1 z m -1,10.909 h -7.818 c -1.492,0 -3.09,1.578 -3.09,3.928 v 4.345 c 0,0.552 0.448,1 1,1 h 9.909 v 8.91 h -9.909 c -0.552,0 -1,0.448 -1,1 V 75.929 H 44.253 V 52.304 c 0,-0.552 -0.448,-1 -1,-1 h -7.001 v -8.91 h 7.001 c 0.552,0 1,-0.448 1,-1 v -4.25 c 0,-7.009 5.162,-12.931 11.272,-12.931 h 7.818 z" /><path
     style="opacity:1;fill:#ffffff;fill-opacity:1;stroke:none;stroke-width:1.5999999;stroke-linecap:round;stroke-linejoin:miter;stroke-miterlimit:4;stroke-dasharray:none;stroke-opacity:1;paint-order:normal"
     d="m 58.787348,23.334094 c -2.811959,0.03371 -5.843228,-0.227247 -8.351657,1.309089 -4.312936,2.428062 -7.087999,7.293512 -7.037302,12.240299 -0.09909,1.534778 0.08998,3.070848 -0.136351,4.575373 -2.418205,0.0601 -4.874026,-0.120488 -7.268505,0.09142 -1.160521,0.413605 -0.572664,1.923205 -0.71477,2.856222 0.06102,2.387435 -0.122247,4.81305 0.09142,7.176629 0.413606,1.160521 1.923205,0.572663 2.856222,0.714769 1.675115,0.01371 3.331246,-0.03467 4.990278,0.05735 0.192658,7.82856 0.08985,15.676167 0.157126,23.514729 0.18157,1.39206 1.825671,0.927446 2.797833,0.996886 2.136006,-0.06095 4.310169,0.122247 6.422308,-0.09142 1.160521,-0.413605 0.572664,-1.923205 0.71477,-2.856222 0.05136,-7.076861 -0.111765,-14.169402 0.110018,-21.227775 0.02733,-0.748654 1.298985,-0.161961 1.815577,-0.371308 2.698443,-0.06366 5.450778,0.04515 8.15371,-0.06804 1.316501,-0.298794 0.730236,-1.93795 0.85688,-2.901846 -0.06102,-2.387435 0.122247,-4.81305 -0.09142,-7.176629 -0.413605,-1.160521 -1.923205,-0.572664 -2.856222,-0.71477 -2.630726,-0.02113 -5.302439,0.04202 -7.907784,-0.03131 -0.1637,-1.693962 -0.0442,-3.47112 0.06291,-5.177541 0.185399,-1.273529 1.314496,-2.398051 2.661974,-2.197105 2.443199,-0.109717 4.972963,0.100175 7.416597,-0.123509 1.159489,-0.41446 0.571831,-1.923139 0.713947,-2.85605 -0.05959,-2.337722 0.12006,-4.712834 -0.09142,-7.026817 -0.41374,-1.160862 -1.923633,-0.572157 -2.856806,-0.713748 -0.836444,4.39e-4 -1.672887,8.78e-4 -2.509331,0.0013 z"
     id="path822"
     inkscape:connector-curvature="0" /><g
     style="fill:#5fe45f;fill-opacity:1;stroke-width:4.24169207"
     id="Layer_1-3"
     transform="matrix(0.23575496,0,0,0.23575496,-168.81889,-16.708965)" /><path
     inkscape:connector-curvature="0"
     id="path835"
     style="fill:#ffffff;fill-opacity:1;stroke-width:0.99999994"
     d="M 82.368169,17.43971 C 74.069055,9.11396 62.561554,3.97246 49.858499,3.97246 37.180547,3.97246 25.674002,9.11396 17.348831,17.43952 9.02366,25.7647 3.881,37.24575 3.881,49.94919 c 0,12.70286 5.142465,24.18488 13.467831,32.50967 8.325171,8.32556 19.831716,13.46668 32.509668,13.46668 12.703055,0 24.210364,-5.14112 32.50967,-13.46668 C 90.69296,74.13407 95.836,62.65205 95.836,49.94919 c 0,-12.70325 -5.142848,-24.1843 -13.467831,-32.50948 z m -2.519685,62.4987 c -7.68917,7.66368 -18.278976,12.39855 -29.98979,12.39855 -11.685137,0 -22.3012,-4.73487 -29.963543,-12.39855 C 12.231466,72.25097 7.471106,61.6602 7.471106,49.94938 c 0,-11.71043 4.76036,-22.3012 12.424045,-29.96392 7.662343,-7.66273 18.278406,-12.42405 29.963543,-12.42405 11.711005,0 22.30062,4.76132 29.98979,12.42405 7.662725,7.66272 12.397793,18.25349 12.397793,29.96392 0,11.71082 -4.735068,22.30159 -12.397793,29.98903 z" /></svg>