<?xml version="1.0" encoding="UTF-8" standalone="no"?>
<svg
   xmlns:dc="http://purl.org/dc/elements/1.1/"
   xmlns:cc="http://creativecommons.org/ns#"
   xmlns:rdf="http://www.w3.org/1999/02/22-rdf-syntax-ns#"
   xmlns:svg="http://www.w3.org/2000/svg"
   xmlns="http://www.w3.org/2000/svg"
   xmlns:sodipodi="http://sodipodi.sourceforge.net/DTD/sodipodi-0.dtd"
   xmlns:inkscape="http://www.inkscape.org/namespaces/inkscape"
   height="512px"
   style="enable-background:new 0 0 512 512;"
   version="1.1"
   viewBox="0 0 512 512"
   width="512px"
   xml:space="preserve"
   id="svg14"
   sodipodi:docname="iconfinder_instagram__social__media__2986059.svg"
   inkscape:version="0.92.4 (5da689c313, 2019-01-14)"><metadata
     id="metadata20"><rdf:RDF><cc:Work
         rdf:about=""><dc:format>image/svg+xml</dc:format><dc:type
           rdf:resource="http://purl.org/dc/dcmitype/StillImage" /></cc:Work></rdf:RDF></metadata><defs
     id="defs18" /><sodipodi:namedview
     pagecolor="#ffffff"
     bordercolor="#666666"
     borderopacity="1"
     objecttolerance="10"
     gridtolerance="10"
     guidetolerance="10"
     inkscape:pageopacity="0"
     inkscape:pageshadow="2"
     inkscape:window-width="1366"
     inkscape:window-height="706"
     id="namedview16"
     showgrid="false"
     inkscape:zoom="0.65186406"
     inkscape:cx="273.15659"
     inkscape:cy="174.9392"
     inkscape:window-x="-8"
     inkscape:window-y="-8"
     inkscape:window-maximized="1"
     inkscape:current-layer="svg14" /><path
     d="M 425.614,86.349 C 382.305,42.901 322.253,16.07 255.962,16.07 189.802,16.07 129.755,42.901 86.31,86.348 42.865,129.793 16.028,189.707 16.028,256 c 0,66.29 26.836,126.209 70.282,169.652 43.445,43.447 103.492,70.276 169.652,70.276 66.291,0 126.342,-26.829 169.652,-70.276 43.443,-43.443 70.282,-103.362 70.282,-169.652 0,-66.292 -26.838,-126.206 -70.282,-169.651 z m -13.149,326.15 c -40.126,39.993 -95.389,64.702 -156.502,64.702 -60.979,0 -116.379,-24.709 -156.365,-64.702 -39.993,-40.117 -64.835,-95.385 -64.835,-156.498 0,-61.111 24.842,-116.379 64.835,-156.367 39.986,-39.988 95.386,-64.835 156.365,-64.835 61.114,0 116.376,24.847 156.502,64.835 39.988,39.988 64.698,95.256 64.698,156.367 0,61.113 -24.71,116.381 -64.698,156.498 z"
     style="fill:#ffffff;fill-opacity:1"
     id="path2"
     inkscape:connector-curvature="0" /><path
     d="m 255.962,178.416 c -42.78,0 -77.585,34.805 -77.585,77.585 0,42.915 34.805,77.59 77.585,77.59 42.911,0 77.585,-34.675 77.585,-77.59 10e-4,-42.78 -34.674,-77.585 -77.585,-77.585 z m 0,139.097 c -33.877,0 -61.379,-27.502 -61.379,-61.512 0,-33.877 27.501,-61.512 61.379,-61.512 34.01,0 61.511,27.635 61.511,61.512 10e-4,34.01 -27.5,61.512 -61.511,61.512 z"
     style="fill:#fcfcfc;fill-opacity:1"
     id="path4"
     inkscape:connector-curvature="0" /><path
     d="M 319.466,136 H 192.594 C 161.374,136 135,161.274 135,192.633 V 319.509 C 135,350.72 161.374,373 192.594,373 H 319.466 C 350.818,373 377,350.72 377,319.509 V 192.633 C 377,161.274 350.818,136 319.466,136 Z M 363,319.509 C 363,343.017 342.982,359 319.466,359 H 192.594 C 169.074,359 150,343.017 150,319.509 V 192.633 C 150,169.113 169.074,150 192.594,150 H 319.466 C 342.982,150 363,169.113 363,192.633 Z"
     style="fill:#fefefe;fill-opacity:1"
     id="path6"
     inkscape:connector-curvature="0" /><path
     d="m 332.086,167.921 c -6.909,0 -12.487,5.578 -12.487,12.484 0,6.911 5.578,12.49 12.487,12.49 6.908,0 12.491,-5.579 12.491,-12.49 0,-6.906 -5.583,-12.484 -12.491,-12.484 z"
     style="fill:#ffffff;fill-opacity:1"
     id="path8"
     inkscape:connector-curvature="0" /><g
     id="Layer_1" /></svg>