<?xml version="1.0" encoding="UTF-8" standalone="no"?>
<svg
   xmlns:dc="http://purl.org/dc/elements/1.1/"
   xmlns:cc="http://creativecommons.org/ns#"
   xmlns:rdf="http://www.w3.org/1999/02/22-rdf-syntax-ns#"
   xmlns:svg="http://www.w3.org/2000/svg"
   xmlns="http://www.w3.org/2000/svg"
   xmlns:sodipodi="http://sodipodi.sourceforge.net/DTD/sodipodi-0.dtd"
   xmlns:inkscape="http://www.inkscape.org/namespaces/inkscape"
   enable-background="new 0 0 100 100"
   height="100px"
   id="Layer_1"
   version="1.1"
   viewBox="0 0 100 100"
   width="100px"
   xml:space="preserve"
   sodipodi:docname="twitter_icon.svg"
   inkscape:version="0.92.4 (5da689c313, 2019-01-14)"><metadata
     id="metadata13"><rdf:RDF><cc:Work
         rdf:about=""><dc:format>image/svg+xml</dc:format><dc:type
           rdf:resource="http://purl.org/dc/dcmitype/StillImage" /></cc:Work></rdf:RDF></metadata><defs
     id="defs11" /><sodipodi:namedview
     pagecolor="#ffffff"
     bordercolor="#666666"
     borderopacity="1"
     objecttolerance="10"
     gridtolerance="10"
     guidetolerance="10"
     inkscape:pageopacity="0"
     inkscape:pageshadow="2"
     inkscape:window-width="1366"
     inkscape:window-height="706"
     id="namedview9"
     showgrid="false"
     inkscape:zoom="3.337544"
     inkscape:cx="69.664817"
     inkscape:cy="37.463131"
     inkscape:window-x="-8"
     inkscape:window-y="-8"
     inkscape:window-maximized="1"
     inkscape:current-layer="Layer_1" /><path
     style="fill:#ffffff;fill-opacity:1;opacity:1"
     inkscape:connector-curvature="0"
     id="path4"
     d="m 26.237,64.711 c 4.391,2.817 9.469,4.307 14.686,4.307 9.728,0 15.99,-4.415 19.53,-8.118 5.027,-5.258 7.889,-12.639 7.716,-19.842 1.721,-1.313 3.205,-2.896 4.418,-4.713 0.247,-0.37 0.22,-0.859 -0.067,-1.199 -0.286,-0.34 -0.762,-0.45 -1.17,-0.27 -0.467,0.207 -0.942,0.394 -1.425,0.559 0.671,-0.899 1.193,-1.908 1.541,-2.992 0.127,-0.396 -0.004,-0.828 -0.329,-1.087 -0.324,-0.259 -0.774,-0.291 -1.133,-0.079 -1.571,0.931 -3.26,1.605 -5.026,2.009 -1.894,-1.801 -4.436,-2.823 -7.06,-2.823 -3.137,0 -6.056,1.41 -8.007,3.868 -1.676,2.11 -2.439,4.738 -2.176,7.372 -6.642,-0.666 -12.801,-3.968 -17.052,-9.182 -0.208,-0.254 -0.527,-0.388 -0.854,-0.365 -0.327,0.026 -0.621,0.21 -0.786,0.494 -2.061,3.536 -1.756,7.845 0.475,11.027 -0.152,-0.073 -0.302,-0.15 -0.449,-0.231 -0.306,-0.17 -0.679,-0.168 -0.982,0.006 -0.304,0.174 -0.494,0.494 -0.503,0.844 -0.079,3.32 1.56,6.421 4.145,8.35 -0.251,0.022 -0.488,0.139 -0.66,0.333 -0.233,0.264 -0.311,0.632 -0.203,0.968 1.059,3.301 3.686,5.778 6.907,6.706 -3.249,1.885 -7.062,2.676 -10.878,2.225 -0.451,-0.05 -0.901,0.217 -1.059,0.656 -0.158,0.439 0.01,0.925 0.401,1.177 z m 14.819,-3.875 c 0.334,-0.261 0.467,-0.703 0.332,-1.104 -0.135,-0.401 -0.507,-0.675 -0.93,-0.683 -2.98,-0.054 -5.65,-1.706 -7.054,-4.244 0.966,0.018 1.919,-0.106 2.845,-0.359 0.447,-0.123 0.752,-0.536 0.735,-1 -0.016,-0.463 -0.348,-0.854 -0.803,-0.946 -3.325,-0.667 -5.893,-3.37 -6.476,-6.591 0.974,0.338 1.997,0.529 3.026,0.561 0.49,0.017 0.848,-0.27 0.983,-0.694 0.137,-0.425 -0.025,-0.889 -0.396,-1.137 -3.202,-2.14 -4.444,-6.175 -3.164,-9.674 4.828,5.273 11.567,8.468 18.723,8.826 0.308,0.017 0.616,-0.117 0.817,-0.357 0.201,-0.24 0.277,-0.562 0.206,-0.868 -0.572,-2.462 0.002,-5.011 1.576,-6.994 1.569,-1.978 3.917,-3.111 6.44,-3.111 2.266,0 4.455,0.947 6.005,2.599 0.236,0.251 0.583,0.361 0.923,0.297 1.156,-0.228 2.283,-0.558 3.374,-0.988 -0.622,0.799 -1.392,1.484 -2.278,2.016 -0.404,0.243 -0.584,0.735 -0.432,1.181 0.153,0.447 0.603,0.725 1.065,0.669 0.753,-0.09 1.497,-0.223 2.229,-0.398 -0.689,0.7 -1.437,1.34 -2.238,1.918 -0.273,0.197 -0.429,0.519 -0.414,0.856 0.308,6.836 -2.363,13.904 -7.145,18.905 -3.271,3.421 -9.063,7.5 -18.085,7.5 -3.494,0 -6.92,-0.721 -10.087,-2.106 3.709,-0.354 7.282,-1.769 10.223,-4.074 z" /><path
     style="opacity:1;fill:#ffffff;fill-opacity:1;stroke:none;stroke-width:1.60000002;stroke-linecap:round;stroke-linejoin:miter;stroke-miterlimit:4;stroke-dasharray:none;stroke-opacity:1;paint-order:normal"
     d="m 58.001139,31.683493 c -3.779062,-0.16291 -7.278271,2.393405 -8.594165,5.883376 -0.810253,1.633031 -0.182951,3.735282 -0.619041,5.299092 C 44.986769,42.67326 41.211571,41.552595 37.83057,39.8171 c -2.541429,-1.338936 -4.691461,-3.257398 -6.843799,-5.117849 -1.265798,-0.805512 -2.236539,0.736347 -2.1203,1.879882 -0.56914,3.205141 1.11112,6.3121 3.455211,8.390162 0.131671,0.172114 0.750122,0.732922 0.189519,0.60249 -1.119433,-0.0588 -2.927801,-0.911871 -3.528452,0.508557 -0.112811,1.72669 1.225779,3.191622 2.194782,4.500877 1.324344,1.351971 3.107953,2.359219 4.875778,2.862239 -0.868906,0.667528 -3.016435,0.03344 -3.268606,1.573005 0.14316,1.331635 1.449583,2.279703 2.440597,3.075184 1.549455,1.134328 3.436881,1.658008 5.285852,1.965953 -2.218303,1.904869 -5.012278,2.956022 -7.793052,3.684041 -0.883825,0.180764 -2.370208,-0.04871 -2.344164,1.283599 0.457058,1.375261 2.275985,1.349021 3.423256,1.845282 7.245068,2.181714 15.384443,0.840684 21.674816,-3.309712 7.401114,-4.901074 11.690847,-13.781388 11.609455,-22.584853 -0.02162,-1.381846 2.626968,-1.747954 1.939934,-3.357364 -0.640178,-0.896967 -1.853485,-0.144248 -2.624305,-0.339728 0.63967,-0.960311 2.668083,-1.428178 2.068574,-2.906101 -1.281656,-1.478124 -3.380595,1.018255 -4.681705,-0.588834 -1.627407,-1.338382 -3.651159,-2.182246 -5.782822,-2.100437 z"
     id="path814"
     inkscape:connector-curvature="0" /><path
     inkscape:connector-curvature="0"
     id="path832"
     style="fill:#ffffff;fill-opacity:1;stroke-width:0.99999994"
     d="M 81.660172,17.381215 C 73.361055,9.055465 61.853552,3.913955 49.150504,3.913955 c -12.677953,0 -24.184504,5.14151 -32.509664,13.46707 -8.3251802,8.32517 -13.4678402,19.80623 -13.4678402,32.50966 0,12.70287 5.14246,24.18489 13.4678402,32.509675 8.32516,8.32555 19.831711,13.46668 32.509664,13.46668 12.703048,0 24.21036,-5.14113 32.509668,-13.46668 C 89.984964,74.075575 95.128,62.593555 95.128,49.890685 c 0,-12.70324 -5.142845,-24.1843 -13.467828,-32.50947 z m -2.519683,62.49869 C 71.451316,87.5436 60.861511,92.27848 49.150695,92.27848 37.465554,92.27848 26.84949,87.5436 19.18716,79.879905 11.52347,72.192465 6.7631097,61.601705 6.7631097,49.890885 c 0,-11.71043 4.7603603,-22.3012 12.4240503,-29.96392 7.66233,-7.66273 18.278394,-12.42405 29.963535,-12.42405 11.711007,0 22.300621,4.76132 29.989794,12.42405 7.66272,7.66272 12.397793,18.25349 12.397793,29.96392 0,11.71082 -4.735073,22.30158 -12.397793,29.98902 z" /><g
     id="g840"
     style="fill:#afafaf;fill-opacity:1;stroke-width:3.43996429"
     transform="matrix(0.29070069,0,0,0.29070069,-416.93845,-38.755308)" /></svg>